<?xml version="1.0" encoding="UTF-8" standalone="no"?>
<!DOCTYPE svg PUBLIC "-//W3C//DTD SVG 1.1//EN"
 "http://www.w3.org/Graphics/SVG/1.1/DTD/svg11.dtd">
<!-- Generated by graphviz version 15.1.0 (20260618.0150)
 -->
<!-- Title: WavefrontAnnotatorKit Pages: 1 -->
<svg width="626pt" height="1802pt"
 viewBox="0.00 0.00 626.00 1802.00" xmlns="http://www.w3.org/2000/svg" xmlns:xlink="http://www.w3.org/1999/xlink">
<g id="graph0" class="graph" transform="scale(1 1) rotate(0) translate(28.8 1773.29)">
<title>WavefrontAnnotatorKit</title>
<polygon fill="#f8fafc" stroke="none" points="-28.8,28.8 -28.8,-1773.29 597.61,-1773.29 597.61,28.8 -28.8,28.8"/>
<text xml:space="preserve" text-anchor="middle" x="284.41" y="-1727.19" font-family="Microsoft YaHei" font-size="14.00">行波波头 Gold 标注 — 软件与分发流程图</text>
<text xml:space="preserve" text-anchor="middle" x="284.41" y="-1708.44" font-family="Microsoft YaHei" font-size="14.00">便携 Kit / exe / CloudBase 云同步</text>
<g id="clust1" class="cluster">
<title>cluster_kit</title>
<path fill="#f8fafc" stroke="#0ea5e9" stroke-dasharray="5,2" d="M222.23,-1319.74C222.23,-1319.74 470.23,-1319.74 470.23,-1319.74 476.23,-1319.74 482.23,-1325.74 482.23,-1331.74 482.23,-1331.74 482.23,-1429.74 482.23,-1429.74 482.23,-1435.74 476.23,-1441.74 470.23,-1441.74 470.23,-1441.74 222.23,-1441.74 222.23,-1441.74 216.23,-1441.74 210.23,-1435.74 210.23,-1429.74 210.23,-1429.74 210.23,-1331.74 210.23,-1331.74 210.23,-1325.74 216.23,-1319.74 222.23,-1319.74"/>
<text xml:space="preserve" text-anchor="middle" x="346.23" y="-1427.29" font-family="Microsoft YaHei" font-size="11.00">标注组分发包 WavefrontAnnotatorKit（勿拆目录）</text>
</g>
<g id="clust2" class="cluster">
<title>cluster_offline</title>
<path fill="#f8fafc" stroke="#94a3b8" stroke-dasharray="5,2" d="M305.23,-1471.99C305.23,-1471.99 516.23,-1471.99 516.23,-1471.99 522.23,-1471.99 528.23,-1477.99 528.23,-1483.99 528.23,-1483.99 528.23,-1678.99 528.23,-1678.99 528.23,-1684.99 522.23,-1690.99 516.23,-1690.99 516.23,-1690.99 305.23,-1690.99 305.23,-1690.99 299.23,-1690.99 293.23,-1684.99 293.23,-1678.99 293.23,-1678.99 293.23,-1483.99 293.23,-1483.99 293.23,-1477.99 299.23,-1471.99 305.23,-1471.99"/>
<text xml:space="preserve" text-anchor="middle" x="410.73" y="-1676.54" font-family="Microsoft YaHei" font-size="11.00">工程侧脚本（非标注员日常）</text>
</g>
<!-- kit -->
<g id="node1" class="node">
<title>kit</title>
<path fill="#e0f2fe" stroke="#334155" stroke-width="1.2" d="M443.85,-1410.74C443.85,-1410.74 272.6,-1410.74 272.6,-1410.74 266.6,-1410.74 260.6,-1404.74 260.6,-1398.74 260.6,-1398.74 260.6,-1339.74 260.6,-1339.74 260.6,-1333.74 266.6,-1327.74 272.6,-1327.74 272.6,-1327.74 443.85,-1327.74 443.85,-1327.74 449.85,-1327.74 455.85,-1333.74 455.85,-1339.74 455.85,-1339.74 455.85,-1398.74 455.85,-1398.74 455.85,-1404.74 449.85,-1410.74 443.85,-1410.74"/>
<text xml:space="preserve" text-anchor="middle" x="358.23" y="-1396.29" font-family="Microsoft YaHei" font-size="11.00">同目录即用</text>
<text xml:space="preserve" text-anchor="middle" x="358.23" y="-1381.29" font-family="Microsoft YaHei" font-size="11.00">.exe + cloudbase.local.json</text>
<text xml:space="preserve" text-anchor="middle" x="358.23" y="-1366.29" font-family="Microsoft YaHei" font-size="11.00">+ hisdata/(相对路径 .all)</text>
<text xml:space="preserve" text-anchor="middle" x="358.23" y="-1351.29" font-family="Microsoft YaHei" font-size="11.00">+ wavefront_dataset_ningxia_core/</text>
<text xml:space="preserve" text-anchor="middle" x="358.23" y="-1336.29" font-family="Microsoft YaHei" font-size="11.00">+ operator.txt</text>
</g>
<!-- start -->
<g id="node2" class="node">
<title>start</title>
<ellipse fill="#dbeafe" stroke="#334155" stroke-width="1.2" cx="358.23" cy="-1267.87" rx="134.88" ry="26.87"/>
<text xml:space="preserve" text-anchor="middle" x="358.23" y="-1272.42" font-family="Microsoft YaHei" font-size="11.00">启动</text>
<text xml:space="preserve" text-anchor="middle" x="358.23" y="-1257.42" font-family="Microsoft YaHei" font-size="11.00">双击 WavefrontGoldAnnotator.exe</text>
</g>
<!-- kit&#45;&gt;start -->
<g id="edge4" class="edge">
<title>kit&#45;&gt;start</title>
<path fill="none" stroke="#64748b" d="M358.23,-1327.25C358.23,-1320.33 358.23,-1313.18 358.23,-1306.36"/>
<polygon fill="#64748b" stroke="#64748b" points="361.73,-1306.79 358.23,-1296.79 354.73,-1306.79 361.73,-1306.79"/>
</g>
<!-- operator -->
<g id="node3" class="node">
<title>operator</title>
<path fill="#e0e7ff" stroke="#334155" stroke-width="1.2" d="M426.23,-1208C426.23,-1208 290.23,-1208 290.23,-1208 284.23,-1208 278.23,-1202 278.23,-1196 278.23,-1196 278.23,-1167 278.23,-1167 278.23,-1161 284.23,-1155 290.23,-1155 290.23,-1155 426.23,-1155 426.23,-1155 432.23,-1155 438.23,-1161 438.23,-1167 438.23,-1167 438.23,-1196 438.23,-1196 438.23,-1202 432.23,-1208 426.23,-1208"/>
<text xml:space="preserve" text-anchor="middle" x="358.23" y="-1193.55" font-family="Microsoft YaHei" font-size="11.00">读取标注员</text>
<text xml:space="preserve" text-anchor="middle" x="358.23" y="-1178.55" font-family="Microsoft YaHei" font-size="11.00">operator.txt / 环境变量</text>
<text xml:space="preserve" text-anchor="middle" x="358.23" y="-1163.55" font-family="Microsoft YaHei" font-size="11.00">WAVEFRONT_ANNOTATOR</text>
</g>
<!-- start&#45;&gt;operator -->
<g id="edge5" class="edge">
<title>start&#45;&gt;operator</title>
<path fill="none" stroke="#64748b" d="M358.23,-1240.64C358.23,-1234.07 358.23,-1226.89 358.23,-1219.9"/>
<polygon fill="#64748b" stroke="#64748b" points="361.73,-1219.94 358.23,-1209.94 354.73,-1219.94 361.73,-1219.94"/>
</g>
<!-- init -->
<g id="node4" class="node">
<title>init</title>
<path fill="#e0e7ff" stroke="#334155" stroke-width="1.2" d="M408.98,-1122C408.98,-1122 307.48,-1122 307.48,-1122 301.48,-1122 295.48,-1116 295.48,-1110 295.48,-1110 295.48,-1096 295.48,-1096 295.48,-1090 301.48,-1084 307.48,-1084 307.48,-1084 408.98,-1084 408.98,-1084 414.98,-1084 420.98,-1090 420.98,-1096 420.98,-1096 420.98,-1110 420.98,-1110 420.98,-1116 414.98,-1122 408.98,-1122"/>
<text xml:space="preserve" text-anchor="middle" x="358.23" y="-1107.55" font-family="Microsoft YaHei" font-size="11.00">初始化 UI</text>
<text xml:space="preserve" text-anchor="middle" x="358.23" y="-1092.55" font-family="Microsoft YaHei" font-size="11.00">PySide6 + pyqtgraph</text>
</g>
<!-- operator&#45;&gt;init -->
<g id="edge6" class="edge">
<title>operator&#45;&gt;init</title>
<path fill="none" stroke="#64748b" d="M358.23,-1154.6C358.23,-1147.91 358.23,-1140.65 358.23,-1133.78"/>
<polygon fill="#64748b" stroke="#64748b" points="361.73,-1133.9 358.23,-1123.9 354.73,-1133.9 361.73,-1133.9"/>
</g>
<!-- cloud_init -->
<g id="node5" class="node">
<title>cloud_init</title>
<path fill="#fef3c7" stroke="#334155" stroke-width="1.2" d="M408.98,-1051C408.98,-1051 307.48,-1051 307.48,-1051 301.48,-1051 295.48,-1045 295.48,-1039 295.48,-1039 295.48,-1025 295.48,-1025 295.48,-1019 301.48,-1013 307.48,-1013 307.48,-1013 408.98,-1013 408.98,-1013 414.98,-1013 420.98,-1019 420.98,-1025 420.98,-1025 420.98,-1039 420.98,-1039 420.98,-1045 414.98,-1051 408.98,-1051"/>
<text xml:space="preserve" text-anchor="middle" x="358.23" y="-1036.55" font-family="Microsoft YaHei" font-size="11.00">联立 CloudBase</text>
<text xml:space="preserve" text-anchor="middle" x="358.23" y="-1021.55" font-family="Microsoft YaHei" font-size="11.00">dataset=ningxia_core</text>
</g>
<!-- init&#45;&gt;cloud_init -->
<g id="edge7" class="edge">
<title>init&#45;&gt;cloud_init</title>
<path fill="none" stroke="#64748b" d="M358.23,-1083.51C358.23,-1077.17 358.23,-1069.9 358.23,-1062.89"/>
<polygon fill="#64748b" stroke="#64748b" points="361.73,-1063.06 358.23,-1053.06 354.73,-1063.06 361.73,-1063.06"/>
</g>
<!-- cloud_ok -->
<g id="node6" class="node">
<title>cloud_ok</title>
<path fill="#fef9c3" stroke="#334155" stroke-width="1.2" d="M346.54,-977.26C346.54,-977.26 293.16,-964.74 293.16,-964.74 287.32,-963.37 287.32,-960.63 293.16,-959.26 293.16,-959.26 346.54,-946.74 346.54,-946.74 352.38,-945.37 364.07,-945.37 369.91,-946.74 369.91,-946.74 423.29,-959.26 423.29,-959.26 429.13,-960.63 429.13,-963.37 423.29,-964.74 423.29,-964.74 369.91,-977.26 369.91,-977.26 364.07,-978.63 352.38,-978.63 346.54,-977.26"/>
<text xml:space="preserve" text-anchor="middle" x="358.23" y="-959.05" font-family="Microsoft YaHei" font-size="11.00">云同步就绪？</text>
</g>
<!-- cloud_init&#45;&gt;cloud_ok -->
<g id="edge8" class="edge">
<title>cloud_init&#45;&gt;cloud_ok</title>
<path fill="none" stroke="#64748b" d="M358.23,-1012.42C358.23,-1005.97 358.23,-998.58 358.23,-991.52"/>
<polygon fill="#64748b" stroke="#64748b" points="361.73,-991.67 358.23,-981.67 354.73,-991.67 361.73,-991.67"/>
</g>
<!-- pull -->
<g id="node7" class="node">
<title>pull</title>
<path fill="#d1fae5" stroke="#334155" stroke-width="1.2" d="M320.6,-897.75C320.6,-897.75 243.85,-897.75 243.85,-897.75 237.85,-897.75 231.85,-891.75 231.85,-885.75 231.85,-885.75 231.85,-871.75 231.85,-871.75 231.85,-865.75 237.85,-859.75 243.85,-859.75 243.85,-859.75 320.6,-859.75 320.6,-859.75 326.6,-859.75 332.6,-865.75 332.6,-871.75 332.6,-871.75 332.6,-885.75 332.6,-885.75 332.6,-891.75 326.6,-897.75 320.6,-897.75"/>
<text xml:space="preserve" text-anchor="middle" x="282.23" y="-883.3" font-family="Microsoft YaHei" font-size="11.00">Pull 云标签</text>
<text xml:space="preserve" text-anchor="middle" x="282.23" y="-868.3" font-family="Microsoft YaHei" font-size="11.00">wf_phase_labels</text>
</g>
<!-- cloud_ok&#45;&gt;pull -->
<g id="edge9" class="edge">
<title>cloud_ok&#45;&gt;pull</title>
<path fill="none" stroke="#64748b" d="M344.99,-946.85C334.56,-935.7 319.73,-919.85 307.11,-906.35"/>
<polygon fill="#64748b" stroke="#64748b" points="310.01,-904.33 300.62,-899.42 304.9,-909.11 310.01,-904.33"/>
<text xml:space="preserve" text-anchor="middle" x="331.91" y="-918.5" font-family="Microsoft YaHei" font-size="10.00">是</text>
</g>
<!-- cloud_fail -->
<g id="node8" class="node">
<title>cloud_fail</title>
<path fill="#fee2e2" stroke="#334155" stroke-width="1.2" d="M451.23,-897.75C451.23,-897.75 369.23,-897.75 369.23,-897.75 363.23,-897.75 357.23,-891.75 357.23,-885.75 357.23,-885.75 357.23,-871.75 357.23,-871.75 357.23,-865.75 363.23,-859.75 369.23,-859.75 369.23,-859.75 451.23,-859.75 451.23,-859.75 457.23,-859.75 463.23,-865.75 463.23,-871.75 463.23,-871.75 463.23,-885.75 463.23,-885.75 463.23,-891.75 457.23,-897.75 451.23,-897.75"/>
<text xml:space="preserve" text-anchor="middle" x="410.23" y="-883.3" font-family="Microsoft YaHei" font-size="11.00">降级：仅本地标注</text>
<text xml:space="preserve" text-anchor="middle" x="410.23" y="-868.3" font-family="Microsoft YaHei" font-size="11.00">状态栏提示原因</text>
</g>
<!-- cloud_ok&#45;&gt;cloud_fail -->
<g id="edge10" class="edge">
<title>cloud_ok&#45;&gt;cloud_fail</title>
<path fill="none" stroke="#64748b" d="M368.01,-945.72C374.9,-934.95 384.32,-920.22 392.52,-907.42"/>
<polygon fill="#64748b" stroke="#64748b" points="395.23,-909.68 397.67,-899.37 389.33,-905.9 395.23,-909.68"/>
<text xml:space="preserve" text-anchor="middle" x="392.21" y="-918.5" font-family="Microsoft YaHei" font-size="10.00">否</text>
</g>
<!-- load_mode -->
<g id="node9" class="node">
<title>load_mode</title>
<path fill="#fef9c3" stroke="#334155" stroke-width="1.2" d="M283.54,-824.01C283.54,-824.01 230.16,-811.49 230.16,-811.49 224.32,-810.12 224.32,-807.38 230.16,-806.01 230.16,-806.01 283.54,-793.49 283.54,-793.49 289.38,-792.12 301.07,-792.12 306.91,-793.49 306.91,-793.49 360.29,-806.01 360.29,-806.01 366.13,-807.38 366.13,-810.12 360.29,-811.49 360.29,-811.49 306.91,-824.01 306.91,-824.01 301.07,-825.38 289.38,-825.38 283.54,-824.01"/>
<text xml:space="preserve" text-anchor="middle" x="295.23" y="-805.8" font-family="Microsoft YaHei" font-size="11.00">数据加载方式</text>
</g>
<!-- pull&#45;&gt;load_mode -->
<g id="edge11" class="edge">
<title>pull&#45;&gt;load_mode</title>
<path fill="none" stroke="#64748b" d="M285.78,-859.17C287.05,-852.54 288.5,-844.92 289.89,-837.68"/>
<polygon fill="#64748b" stroke="#64748b" points="293.31,-838.42 291.75,-827.94 286.43,-837.1 293.31,-838.42"/>
</g>
<!-- cloud_fail&#45;&gt;load_mode -->
<g id="edge12" class="edge">
<title>cloud_fail&#45;&gt;load_mode</title>
<path fill="none" stroke="#64748b" d="M378.8,-859.17C362.39,-849.46 342.38,-837.63 326.06,-827.98"/>
<polygon fill="#64748b" stroke="#64748b" points="328.13,-825.14 317.74,-823.06 324.56,-831.16 328.13,-825.14"/>
</g>
<!-- load_core -->
<g id="node10" class="node">
<title>load_core</title>
<path fill="#dcfce7" stroke="#334155" stroke-width="1.2" d="M327.35,-744.5C327.35,-744.5 171.1,-744.5 171.1,-744.5 165.1,-744.5 159.1,-738.5 159.1,-732.5 159.1,-732.5 159.1,-703.5 159.1,-703.5 159.1,-697.5 165.1,-691.5 171.1,-691.5 171.1,-691.5 327.35,-691.5 327.35,-691.5 333.35,-691.5 339.35,-697.5 339.35,-703.5 339.35,-703.5 339.35,-732.5 339.35,-732.5 339.35,-738.5 333.35,-744.5 327.35,-744.5"/>
<text xml:space="preserve" text-anchor="middle" x="249.23" y="-730.05" font-family="Microsoft YaHei" font-size="11.00">加载核心拓扑集</text>
<text xml:space="preserve" text-anchor="middle" x="249.23" y="-715.05" font-family="Microsoft YaHei" font-size="11.00">core_file_index.csv</text>
<text xml:space="preserve" text-anchor="middle" x="249.23" y="-700.05" font-family="Microsoft YaHei" font-size="11.00">source_path → Kit相对 hisdata/</text>
</g>
<!-- load_mode&#45;&gt;load_core -->
<g id="edge13" class="edge">
<title>load_mode&#45;&gt;load_core</title>
<path fill="none" stroke="#64748b" d="M287.21,-792.29C281.89,-782.02 274.67,-768.1 267.96,-755.14"/>
<polygon fill="#64748b" stroke="#64748b" points="271.13,-753.66 263.42,-746.39 264.92,-756.88 271.13,-753.66"/>
<text xml:space="preserve" text-anchor="middle" x="304.7" y="-765.25" font-family="Microsoft YaHei" font-size="10.00">默认/工具栏</text>
</g>
<!-- load_dir -->
<g id="node11" class="node">
<title>load_dir</title>
<path fill="#e0f2fe" stroke="#334155" stroke-width="1.2" d="M458.23,-737C458.23,-737 376.23,-737 376.23,-737 370.23,-737 364.23,-731 364.23,-725 364.23,-725 364.23,-711 364.23,-711 364.23,-705 370.23,-699 376.23,-699 376.23,-699 458.23,-699 458.23,-699 464.23,-699 470.23,-705 470.23,-711 470.23,-711 470.23,-725 470.23,-725 470.23,-731 464.23,-737 458.23,-737"/>
<text xml:space="preserve" text-anchor="middle" x="417.23" y="-722.55" font-family="Microsoft YaHei" font-size="11.00">打开任意录波目录</text>
<text xml:space="preserve" text-anchor="middle" x="417.23" y="-707.55" font-family="Microsoft YaHei" font-size="11.00">递归扫描 .all/.vall</text>
</g>
<!-- load_mode&#45;&gt;load_dir -->
<g id="edge14" class="edge">
<title>load_mode&#45;&gt;load_dir</title>
<path fill="none" stroke="#64748b" d="M313.49,-794.46C331.75,-781.18 360.29,-760.42 382.81,-744.04"/>
<polygon fill="#64748b" stroke="#64748b" points="384.8,-746.92 390.82,-738.21 380.68,-741.26 384.8,-746.92"/>
<text xml:space="preserve" text-anchor="middle" x="379.38" y="-765.25" font-family="Microsoft YaHei" font-size="10.00">打开目录</text>
</g>
<!-- load_auto -->
<g id="node12" class="node">
<title>load_auto</title>
<path fill="#f3e8ff" stroke="#334155" stroke-width="1.2" d="M376.73,-658.5C376.73,-658.5 297.73,-658.5 297.73,-658.5 291.73,-658.5 285.73,-652.5 285.73,-646.5 285.73,-646.5 285.73,-632.5 285.73,-632.5 285.73,-626.5 291.73,-620.5 297.73,-620.5 297.73,-620.5 376.73,-620.5 376.73,-620.5 382.73,-620.5 388.73,-626.5 388.73,-632.5 388.73,-632.5 388.73,-646.5 388.73,-646.5 388.73,-652.5 382.73,-658.5 376.73,-658.5"/>
<text xml:space="preserve" text-anchor="middle" x="337.23" y="-644.05" font-family="Microsoft YaHei" font-size="11.00">自动标签对照</text>
<text xml:space="preserve" text-anchor="middle" x="337.23" y="-629.05" font-family="Microsoft YaHei" font-size="11.00">phase_labels.csv</text>
</g>
<!-- load_core&#45;&gt;load_auto -->
<g id="edge15" class="edge">
<title>load_core&#45;&gt;load_auto</title>
<path fill="none" stroke="#64748b" d="M279.02,-691.1C288.24,-683.09 298.39,-674.26 307.6,-666.25"/>
<polygon fill="#64748b" stroke="#64748b" points="309.68,-669.08 314.94,-659.88 305.09,-663.8 309.68,-669.08"/>
</g>
<!-- load_dir&#45;&gt;load_auto -->
<g id="edge16" class="edge">
<title>load_dir&#45;&gt;load_auto</title>
<path fill="none" stroke="#64748b" d="M397.86,-698.48C387.84,-688.9 375.43,-677.04 364.46,-666.54"/>
<polygon fill="#64748b" stroke="#64748b" points="367.15,-664.28 357.51,-659.89 362.32,-669.33 367.15,-664.28"/>
</g>
<!-- select -->
<g id="node13" class="node">
<title>select</title>
<path fill="#ffffff" stroke="#334155" stroke-width="1.2" d="M378.23,-587.5C378.23,-587.5 296.23,-587.5 296.23,-587.5 290.23,-587.5 284.23,-581.5 284.23,-575.5 284.23,-575.5 284.23,-561.5 284.23,-561.5 284.23,-555.5 290.23,-549.5 296.23,-549.5 296.23,-549.5 378.23,-549.5 378.23,-549.5 384.23,-549.5 390.23,-555.5 390.23,-561.5 390.23,-561.5 390.23,-575.5 390.23,-575.5 390.23,-581.5 384.23,-587.5 378.23,-587.5"/>
<text xml:space="preserve" text-anchor="middle" x="337.23" y="-573.05" font-family="Microsoft YaHei" font-size="11.00">选择文件</text>
<text xml:space="preserve" text-anchor="middle" x="337.23" y="-558.05" font-family="Microsoft YaHei" font-size="11.00">列表按优先级排序</text>
</g>
<!-- load_auto&#45;&gt;select -->
<g id="edge17" class="edge">
<title>load_auto&#45;&gt;select</title>
<path fill="none" stroke="#64748b" d="M337.23,-620.01C337.23,-613.67 337.23,-606.4 337.23,-599.39"/>
<polygon fill="#64748b" stroke="#64748b" points="340.73,-599.56 337.23,-589.56 333.73,-599.56 340.73,-599.56"/>
</g>
<!-- decode -->
<g id="node14" class="node">
<title>decode</title>
<path fill="#ffedd5" stroke="#334155" stroke-width="1.2" d="M299.73,-516.5C299.73,-516.5 214.73,-516.5 214.73,-516.5 208.73,-516.5 202.73,-510.5 202.73,-504.5 202.73,-504.5 202.73,-490.5 202.73,-490.5 202.73,-484.5 208.73,-478.5 214.73,-478.5 214.73,-478.5 299.73,-478.5 299.73,-478.5 305.73,-478.5 311.73,-484.5 311.73,-490.5 311.73,-490.5 311.73,-504.5 311.73,-504.5 311.73,-510.5 305.73,-516.5 299.73,-516.5"/>
<text xml:space="preserve" text-anchor="middle" x="257.23" y="-502.05" font-family="Microsoft YaHei" font-size="11.00">解码 .all/.vall</text>
<text xml:space="preserve" text-anchor="middle" x="257.23" y="-487.05" font-family="Microsoft YaHei" font-size="11.00">三相波形 + 采样率</text>
</g>
<!-- select&#45;&gt;decode -->
<g id="edge18" class="edge">
<title>select&#45;&gt;decode</title>
<path fill="none" stroke="#64748b" d="M315.79,-549.01C307,-541.43 296.68,-532.53 287.16,-524.32"/>
<polygon fill="#64748b" stroke="#64748b" points="289.73,-521.91 279.87,-518.03 285.16,-527.21 289.73,-521.91"/>
</g>
<!-- view -->
<g id="node15" class="node">
<title>view</title>
<path fill="#ecfeff" stroke="#334155" stroke-width="1.2" d="M304.23,-445.5C304.23,-445.5 174.23,-445.5 174.23,-445.5 168.23,-445.5 162.23,-439.5 162.23,-433.5 162.23,-433.5 162.23,-404.5 162.23,-404.5 162.23,-398.5 168.23,-392.5 174.23,-392.5 174.23,-392.5 304.23,-392.5 304.23,-392.5 310.23,-392.5 316.23,-398.5 316.23,-404.5 316.23,-404.5 316.23,-433.5 316.23,-433.5 316.23,-439.5 310.23,-445.5 304.23,-445.5"/>
<text xml:space="preserve" text-anchor="middle" x="239.23" y="-431.05" font-family="Microsoft YaHei" font-size="11.00">波形可视化</text>
<text xml:space="preserve" text-anchor="middle" x="239.23" y="-416.05" font-family="Microsoft YaHei" font-size="11.00">A/B/C 切换 · 卡尺 · |di/dt|</text>
<text xml:space="preserve" text-anchor="middle" x="239.23" y="-401.05" font-family="Microsoft YaHei" font-size="11.00">框线区间 R</text>
</g>
<!-- decode&#45;&gt;view -->
<g id="edge19" class="edge">
<title>decode&#45;&gt;view</title>
<path fill="none" stroke="#64748b" d="M252.87,-477.98C251.36,-471.58 249.62,-464.16 247.89,-456.82"/>
<polygon fill="#64748b" stroke="#64748b" points="251.36,-456.27 245.66,-447.34 244.54,-457.87 251.36,-456.27"/>
</g>
<!-- annotate -->
<g id="node16" class="node">
<title>annotate</title>
<path fill="#fce7f3" stroke="#334155" stroke-width="1.2" d="M304.85,-359.5C304.85,-359.5 157.6,-359.5 157.6,-359.5 151.6,-359.5 145.6,-353.5 145.6,-347.5 145.6,-347.5 145.6,-333.5 145.6,-333.5 145.6,-327.5 151.6,-321.5 157.6,-321.5 157.6,-321.5 304.85,-321.5 304.85,-321.5 310.85,-321.5 316.85,-327.5 316.85,-333.5 316.85,-333.5 316.85,-347.5 316.85,-347.5 316.85,-353.5 310.85,-359.5 304.85,-359.5"/>
<text xml:space="preserve" text-anchor="middle" x="231.23" y="-345.05" font-family="Microsoft YaHei" font-size="11.00">人工判定</text>
<text xml:space="preserve" text-anchor="middle" x="231.23" y="-330.05" font-family="Microsoft YaHei" font-size="11.00">G=gold / U=unsure / X=reject</text>
</g>
<!-- view&#45;&gt;annotate -->
<g id="edge20" class="edge">
<title>view&#45;&gt;annotate</title>
<path fill="none" stroke="#64748b" d="M236.52,-392.1C235.82,-385.41 235.06,-378.15 234.34,-371.28"/>
<polygon fill="#64748b" stroke="#64748b" points="237.83,-370.97 233.31,-361.39 230.86,-371.7 237.83,-370.97"/>
</g>
<!-- save -->
<g id="node17" class="node">
<title>save</title>
<path fill="#dbeafe" stroke="#334155" stroke-width="1.2" d="M305.85,-275.25C305.85,-275.25 152.6,-275.25 152.6,-275.25 146.6,-275.25 140.6,-269.25 140.6,-263.25 140.6,-263.25 140.6,-249.25 140.6,-249.25 140.6,-243.25 146.6,-237.25 152.6,-237.25 152.6,-237.25 305.85,-237.25 305.85,-237.25 311.85,-237.25 317.85,-243.25 317.85,-249.25 317.85,-249.25 317.85,-263.25 317.85,-263.25 317.85,-269.25 311.85,-275.25 305.85,-275.25"/>
<text xml:space="preserve" text-anchor="middle" x="229.23" y="-260.8" font-family="Microsoft YaHei" font-size="11.00">保存 (Space)</text>
<text xml:space="preserve" text-anchor="middle" x="229.23" y="-245.8" font-family="Microsoft YaHei" font-size="11.00">annotator_data/gold_labels.csv</text>
</g>
<!-- annotate&#45;&gt;save -->
<g id="edge21" class="edge">
<title>annotate&#45;&gt;save</title>
<path fill="none" stroke="#64748b" d="M230.78,-321.25C230.54,-311.2 230.23,-298.48 229.95,-287.04"/>
<polygon fill="#64748b" stroke="#64748b" points="233.45,-287.16 229.71,-277.25 226.46,-287.33 233.45,-287.16"/>
</g>
<!-- upload -->
<g id="node18" class="node">
<title>upload</title>
<path fill="#fef9c3" stroke="#334155" stroke-width="1.2" d="M217.54,-201.51C217.54,-201.51 164.16,-188.99 164.16,-188.99 158.32,-187.62 158.32,-184.88 164.16,-183.51 164.16,-183.51 217.54,-170.99 217.54,-170.99 223.38,-169.62 235.07,-169.62 240.91,-170.99 240.91,-170.99 294.29,-183.51 294.29,-183.51 300.13,-184.88 300.13,-187.62 294.29,-188.99 294.29,-188.99 240.91,-201.51 240.91,-201.51 235.07,-202.88 223.38,-202.88 217.54,-201.51"/>
<text xml:space="preserve" text-anchor="middle" x="229.23" y="-183.3" font-family="Microsoft YaHei" font-size="11.00">云同步开启？</text>
</g>
<!-- save&#45;&gt;upload -->
<g id="edge22" class="edge">
<title>save&#45;&gt;upload</title>
<path fill="none" stroke="#64748b" d="M229.23,-236.67C229.23,-230.22 229.23,-222.83 229.23,-215.77"/>
<polygon fill="#64748b" stroke="#64748b" points="232.73,-215.92 229.23,-205.92 225.73,-215.92 232.73,-215.92"/>
</g>
<!-- upsert -->
<g id="node19" class="node">
<title>upsert</title>
<path fill="#d1fae5" stroke="#334155" stroke-width="1.2" d="M246.23,-122C246.23,-122 164.23,-122 164.23,-122 158.23,-122 152.23,-116 152.23,-110 152.23,-110 152.23,-81 152.23,-81 152.23,-75 158.23,-69 164.23,-69 164.23,-69 246.23,-69 246.23,-69 252.23,-69 258.23,-75 258.23,-81 258.23,-81 258.23,-110 258.23,-110 258.23,-116 252.23,-122 246.23,-122"/>
<text xml:space="preserve" text-anchor="middle" x="205.23" y="-107.55" font-family="Microsoft YaHei" font-size="11.00">Upsert 云端</text>
<text xml:space="preserve" text-anchor="middle" x="205.23" y="-92.55" font-family="Microsoft YaHei" font-size="11.00">wf_phase_labels</text>
<text xml:space="preserve" text-anchor="middle" x="205.23" y="-77.55" font-family="Microsoft YaHei" font-size="11.00">含 annotator 字段</text>
</g>
<!-- upload&#45;&gt;upsert -->
<g id="edge23" class="edge">
<title>upload&#45;&gt;upsert</title>
<path fill="none" stroke="#64748b" d="M224.82,-168.97C222.13,-159.01 218.57,-145.84 215.22,-133.46"/>
<polygon fill="#64748b" stroke="#64748b" points="218.62,-132.63 212.63,-123.89 211.87,-134.46 218.62,-132.63"/>
<text xml:space="preserve" text-anchor="middle" x="224.96" y="-142.75" font-family="Microsoft YaHei" font-size="10.00">是</text>
</g>
<!-- next -->
<g id="node20" class="node">
<title>next</title>
<path fill="#f1f5f9" stroke="#334155" stroke-width="1.2" d="M362.35,-36C362.35,-36 254.1,-36 254.1,-36 248.1,-36 242.1,-30 242.1,-24 242.1,-24 242.1,-12 242.1,-12 242.1,-6 248.1,0 254.1,0 254.1,0 362.35,0 362.35,0 368.35,0 374.35,-6 374.35,-12 374.35,-12 374.35,-24 374.35,-24 374.35,-30 368.35,-36 362.35,-36"/>
<text xml:space="preserve" text-anchor="middle" x="308.23" y="-15.05" font-family="Microsoft YaHei" font-size="11.00">Enter：保存并下一文件</text>
</g>
<!-- upload&#45;&gt;next -->
<g id="edge24" class="edge">
<title>upload&#45;&gt;next</title>
<path fill="none" stroke="#64748b" d="M240.48,-170.54C249.63,-158.1 262.41,-139.55 271.23,-122 283.46,-97.65 293.6,-68.25 300.15,-47.1"/>
<polygon fill="#64748b" stroke="#64748b" points="303.44,-48.32 302.98,-37.74 296.74,-46.3 303.44,-48.32"/>
<text xml:space="preserve" text-anchor="middle" x="297.53" y="-93.12" font-family="Microsoft YaHei" font-size="10.00">否</text>
</g>
<!-- upsert&#45;&gt;next -->
<g id="edge25" class="edge">
<title>upsert&#45;&gt;next</title>
<path fill="none" stroke="#64748b" d="M240.67,-68.52C251.83,-60.34 264.11,-51.33 275.11,-43.28"/>
<polygon fill="#64748b" stroke="#64748b" points="277.16,-46.11 283.16,-37.38 273.02,-40.47 277.16,-46.11"/>
</g>
<!-- train -->
<g id="node24" class="node">
<title>train</title>
<path fill="#f8fafc" stroke="#334155" stroke-width="1.2" d="M508.48,-1517.99C508.48,-1517.99 451.98,-1517.99 451.98,-1517.99 445.98,-1517.99 439.98,-1511.99 439.98,-1505.99 439.98,-1505.99 439.98,-1491.99 439.98,-1491.99 439.98,-1485.99 445.98,-1479.99 451.98,-1479.99 451.98,-1479.99 508.48,-1479.99 508.48,-1479.99 514.48,-1479.99 520.48,-1485.99 520.48,-1491.99 520.48,-1491.99 520.48,-1505.99 520.48,-1505.99 520.48,-1511.99 514.48,-1517.99 508.48,-1517.99"/>
<text xml:space="preserve" text-anchor="middle" x="480.23" y="-1503.54" font-family="Microsoft YaHei" font-size="11.00">CNN 训练</text>
<text xml:space="preserve" text-anchor="middle" x="480.23" y="-1488.54" font-family="Microsoft YaHei" font-size="11.00">读 h5 + 金标</text>
</g>
<!-- upsert&#45;&gt;train -->
<g id="edge29" class="edge">
<title>upsert&#45;&gt;train</title>
<path fill="none" stroke="#64748b" stroke-dasharray="5,2" d="M175.17,-122.34C162.44,-134.92 148.63,-151.03 140.23,-168.25 119.23,-211.25 127.31,-227.41 128.23,-275.25 138.18,-794.69 -150.78,-1062.41 204.23,-1441.74 238.4,-1478.25 379.18,-1458.11 427.23,-1471.99 430.32,-1472.88 433.45,-1473.95 436.56,-1475.13"/>
<polygon fill="#64748b" stroke="#64748b" points="435.03,-1478.28 445.61,-1478.93 437.74,-1471.83 435.03,-1478.28"/>
<text xml:space="preserve" text-anchor="middle" x="34.12" y="-753.14" font-family="Microsoft YaHei" font-size="10.00">pull 金标后训练</text>
</g>
<!-- next&#45;&gt;select -->
<g id="edge26" class="edge">
<title>next&#45;&gt;select</title>
<path fill="none" stroke="#64748b" d="M327.47,-36.57C340.83,-50.75 356.23,-71.98 356.23,-94.5 356.23,-498.5 356.23,-498.5 356.23,-498.5 356.23,-511.87 352.87,-526.19 348.98,-538.3"/>
<polygon fill="#64748b" stroke="#64748b" points="345.69,-537.11 345.67,-547.71 352.29,-539.43 345.69,-537.11"/>
<text xml:space="preserve" text-anchor="middle" x="365.98" y="-296" font-family="Microsoft YaHei" font-size="10.00">继续</text>
</g>
<!-- build -->
<g id="node21" class="node">
<title>build</title>
<path fill="#f8fafc" stroke="#334155" stroke-width="1.2" d="M476.73,-1659.99C476.73,-1659.99 343.73,-1659.99 343.73,-1659.99 337.73,-1659.99 331.73,-1653.99 331.73,-1647.99 331.73,-1647.99 331.73,-1633.99 331.73,-1633.99 331.73,-1627.99 337.73,-1621.99 343.73,-1621.99 343.73,-1621.99 476.73,-1621.99 476.73,-1621.99 482.73,-1621.99 488.73,-1627.99 488.73,-1633.99 488.73,-1633.99 488.73,-1647.99 488.73,-1647.99 488.73,-1653.99 482.73,-1659.99 476.73,-1659.99"/>
<text xml:space="preserve" text-anchor="middle" x="410.23" y="-1645.54" font-family="Microsoft YaHei" font-size="11.00">拓扑筛选入库</text>
<text xml:space="preserve" text-anchor="middle" x="410.23" y="-1630.54" font-family="Microsoft YaHei" font-size="11.00">SVG∩Excel → ningxia_core</text>
</g>
<!-- push -->
<g id="node22" class="node">
<title>push</title>
<path fill="#f8fafc" stroke="#334155" stroke-width="1.2" d="M474.48,-1588.99C474.48,-1588.99 345.98,-1588.99 345.98,-1588.99 339.98,-1588.99 333.98,-1582.99 333.98,-1576.99 333.98,-1576.99 333.98,-1562.99 333.98,-1562.99 333.98,-1556.99 339.98,-1550.99 345.98,-1550.99 345.98,-1550.99 474.48,-1550.99 474.48,-1550.99 480.48,-1550.99 486.48,-1556.99 486.48,-1562.99 486.48,-1562.99 486.48,-1576.99 486.48,-1576.99 486.48,-1582.99 480.48,-1588.99 474.48,-1588.99"/>
<text xml:space="preserve" text-anchor="middle" x="410.23" y="-1574.54" font-family="Microsoft YaHei" font-size="11.00">push 脚本</text>
<text xml:space="preserve" text-anchor="middle" x="410.23" y="-1559.54" font-family="Microsoft YaHei" font-size="11.00">h5 + samples/labels → 云</text>
</g>
<!-- build&#45;&gt;push -->
<g id="edge1" class="edge">
<title>build&#45;&gt;push</title>
<path fill="none" stroke="#64748b" stroke-dasharray="5,2" d="M410.23,-1621.5C410.23,-1615.16 410.23,-1607.89 410.23,-1600.88"/>
<polygon fill="#64748b" stroke="#64748b" points="413.73,-1601.05 410.23,-1591.05 406.73,-1601.05 413.73,-1601.05"/>
</g>
<!-- push&#45;&gt;cloud_init -->
<g id="edge28" class="edge">
<title>push&#45;&gt;cloud_init</title>
<path fill="none" stroke="#64748b" stroke-dasharray="5,2" d="M486.94,-1553C505.09,-1545.44 522.31,-1534.33 533.23,-1517.99 558.58,-1480.04 593.66,-1554.07 505.23,-1241 484.36,-1167.13 482.79,-1142.62 433.23,-1084 424.73,-1073.96 413.8,-1065.04 402.92,-1057.58"/>
<polygon fill="#64748b" stroke="#64748b" points="404.99,-1054.75 394.7,-1052.23 401.18,-1060.62 404.99,-1054.75"/>
<text xml:space="preserve" text-anchor="middle" x="544.44" y="-1265.5" font-family="Microsoft YaHei" font-size="10.00">预置云数据</text>
</g>
<!-- pack -->
<g id="node23" class="node">
<title>pack</title>
<path fill="#f8fafc" stroke="#334155" stroke-width="1.2" d="M402.98,-1517.99C402.98,-1517.99 313.48,-1517.99 313.48,-1517.99 307.48,-1517.99 301.48,-1511.99 301.48,-1505.99 301.48,-1505.99 301.48,-1491.99 301.48,-1491.99 301.48,-1485.99 307.48,-1479.99 313.48,-1479.99 313.48,-1479.99 402.98,-1479.99 402.98,-1479.99 408.98,-1479.99 414.98,-1485.99 414.98,-1491.99 414.98,-1491.99 414.98,-1505.99 414.98,-1505.99 414.98,-1511.99 408.98,-1517.99 402.98,-1517.99"/>
<text xml:space="preserve" text-anchor="middle" x="358.23" y="-1503.54" font-family="Microsoft YaHei" font-size="11.00">build_annotator_kit</text>
<text xml:space="preserve" text-anchor="middle" x="358.23" y="-1488.54" font-family="Microsoft YaHei" font-size="11.00">组装便携 Kit</text>
</g>
<!-- push&#45;&gt;pack -->
<g id="edge2" class="edge">
<title>push&#45;&gt;pack</title>
<path fill="none" stroke="#64748b" stroke-dasharray="5,2" d="M396.29,-1550.5C390.99,-1543.46 384.82,-1535.28 379.02,-1527.58"/>
<polygon fill="#64748b" stroke="#64748b" points="381.92,-1525.62 373.11,-1519.74 376.33,-1529.83 381.92,-1525.62"/>
</g>
<!-- push&#45;&gt;train -->
<g id="edge3" class="edge">
<title>push&#45;&gt;train</title>
<path fill="none" stroke="#64748b" stroke-dasharray="5,2" d="M428.98,-1550.5C436.44,-1543.15 445.16,-1534.56 453.26,-1526.57"/>
<polygon fill="#64748b" stroke="#64748b" points="455.67,-1529.11 460.34,-1519.59 450.76,-1524.12 455.67,-1529.11"/>
</g>
<!-- pack&#45;&gt;kit -->
<g id="edge27" class="edge">
<title>pack&#45;&gt;kit</title>
<path fill="none" stroke="#64748b" stroke-dasharray="5,2" d="M358.23,-1479.41C358.23,-1464.48 358.23,-1442.73 358.23,-1422.57"/>
<polygon fill="#64748b" stroke="#64748b" points="361.73,-1422.79 358.23,-1412.79 354.73,-1422.79 361.73,-1422.79"/>
<text xml:space="preserve" text-anchor="middle" x="367.98" y="-1454.49" font-family="Microsoft YaHei" font-size="10.00">分发</text>
</g>
</g>
</svg>
